<svg width="61" height="61" viewBox="0 0 61 61" fill="none" xmlns="http://www.w3.org/2000/svg">
<path d="M35.5833 15.25H15.25C12.8815 15.25 11.6965 15.25 10.7624 15.6369C9.51681 16.1529 8.52787 17.1431 8.01195 18.3886C7.625 19.3228 7.625 20.507 7.625 22.8756C11.8362 22.8756 15.25 26.2882 15.25 30.4994C15.25 34.7106 11.8362 38.125 7.625 38.125C7.625 40.4935 7.625 41.6778 8.01195 42.612C8.52787 43.8575 9.51681 44.8469 10.7624 45.3628C11.6965 45.7497 12.8815 45.75 15.25 45.75H35.5833M35.5833 15.25H45.75C48.1185 15.25 49.3028 15.25 50.237 15.6369C51.4825 16.1529 52.4719 17.1431 52.9878 18.3886C53.3747 19.3228 53.3747 20.5071 53.3747 22.8756C49.1636 22.8756 45.75 26.2888 45.75 30.5C45.75 34.7112 49.1636 38.125 53.3747 38.125C53.3747 40.4935 53.3747 41.6778 52.9878 42.612C52.4719 43.8575 51.4825 44.8469 50.237 45.3628C49.3028 45.7497 48.1185 45.75 45.75 45.75H35.5833M35.5833 15.25V45.75" stroke="white" stroke-width="2" stroke-linecap="round" stroke-linejoin="round"/>
</svg>
