<svg width="61" height="61" viewBox="0 0 61 61" fill="none" xmlns="http://www.w3.org/2000/svg">
<path d="M15.25 19.0631V18.3006C15.25 15.4536 15.25 14.0291 15.8041 12.9417C16.2914 11.9852 17.0685 11.2082 18.025 10.7208C19.1124 10.1667 20.5369 10.1667 23.3838 10.1667H45.2422C48.0891 10.1667 49.5106 10.1667 50.598 10.7208C51.5545 11.2082 52.3341 11.9852 52.8215 12.9417C53.375 14.0281 53.375 15.4509 53.375 18.2922V35.0829C53.375 37.9243 53.375 39.3451 52.8215 40.4314C52.3341 41.3879 51.555 42.1676 50.5985 42.6549C49.5121 43.2084 48.0909 43.2084 45.2495 43.2084H26.6875M7.625 42.7006V28.4672C7.625 25.6203 7.625 24.1958 8.17905 23.1084C8.66641 22.1519 9.44349 21.3748 10.4 20.8875C11.4874 20.3334 12.9119 20.3334 15.7588 20.3334H17.2838C20.1308 20.3334 21.5522 20.3334 22.6396 20.8875C23.5961 21.3748 24.3758 22.1519 24.8632 23.1084C25.4167 24.1947 25.4167 25.6175 25.4167 28.4589V42.7079C25.4167 45.5493 25.4167 46.9701 24.8632 48.0564C24.3758 49.0129 23.5961 49.7926 22.6396 50.2799C21.5533 50.8334 20.1326 50.8334 17.2912 50.8334H15.7505C12.9091 50.8334 11.4863 50.8334 10.4 50.2799C9.44349 49.7926 8.66641 49.0129 8.17905 48.0564C7.625 46.969 7.625 45.5475 7.625 42.7006Z" stroke="white" stroke-width="2" stroke-linecap="round" stroke-linejoin="round"/>
</svg>
