<svg width="61" height="61" viewBox="0 0 61 61" fill="none" xmlns="http://www.w3.org/2000/svg">
<path d="M38.125 25.4167L27.9583 35.5833L22.875 30.5M18.6348 10.0078L10.0078 18.6348L9.99998 18.6422C9.12603 19.5161 8.68802 19.9541 8.37459 20.4656C8.09588 20.9204 7.88998 21.4168 7.76545 21.9355C7.625 22.5206 7.625 23.142 7.625 24.3854V36.6147C7.625 37.858 7.625 38.4796 7.76545 39.0647C7.88998 39.5833 8.09588 40.0791 8.37459 40.5339C8.68885 41.0467 9.12921 41.4871 10.0078 42.3657L18.6348 50.9927C19.514 51.8718 19.9526 52.3105 20.4656 52.6248C20.9204 52.9035 21.4156 53.1102 21.9343 53.2348C22.5184 53.375 23.1389 53.375 24.3784 53.375H36.6191C37.8586 53.375 38.4817 53.375 39.0659 53.2348C39.5846 53.1102 40.0803 52.9036 40.5351 52.6248C41.0481 52.3105 41.4878 51.8718 42.3669 50.9927L50.9939 42.3657C51.8731 41.4865 52.3117 41.0469 52.6261 40.5339C52.9048 40.0791 53.109 39.5833 53.2335 39.0646C53.374 38.4796 53.375 37.858 53.375 36.6147V24.3854C53.375 23.142 53.374 22.5206 53.2335 21.9355C53.109 21.4168 52.9048 20.9204 52.6261 20.4656C52.3117 19.9526 51.873 19.5139 50.9939 18.6348L42.3669 10.0078C41.4883 9.12919 41.0479 8.68886 40.5351 8.37459C40.0803 8.09588 39.5846 7.88998 39.0659 7.76545C38.4809 7.625 37.8568 7.625 36.6134 7.625H24.3841C23.1408 7.625 22.5193 7.625 21.9343 7.76545C21.4156 7.88998 20.9204 8.09588 20.4656 8.37459C19.9573 8.6861 19.5227 9.12069 18.6594 9.984L18.6348 10.0078Z" stroke="white" stroke-width="2" stroke-linecap="round" stroke-linejoin="round"/>
</svg>
